# xmcd
#
# Track frame offsets:
#  150
#  16665
#  37647
#  56952
#  74572
#  92240
#  107042
#  123237
#  139720
#  165195
#  182667
#
# Disc length: 2572 seconds
#
# Revision: 0
# Processed by: cddbd v1.5.1PL2 Copyright (c) Steve Scherf et al.
# Submitted via: Collectorz.com_Music_Collector 6.11
#
DISCID=880a0a0b
DTITLE=Indigo - Make our Day
DYEAR=1900
DGENRE=
TTITLE0=Everyday is the first Day of Your Life
TTITLE1=Give Love a Try
TTITLE2=Never Give up on Your Dreams
TTITLE3=Summer of 1993
TTITLE4=Slow-Motion
TTITLE5=Head over Heels
TTITLE6=Memphis in the Rain
TTITLE7=Talk to You
TTITLE8=Dawn (Dreaming of waking up with you mix)
TTITLE9=Dedicated to Love
TTITLE10=Everyday
EXTD=
EXTT0=
EXTT1=
EXTT2=
EXTT3=
EXTT4=
EXTT5=
EXTT6=
EXTT7=
EXTT8=
EXTT9=
EXTT10=
PLAYORDER=
